<svg xmlns="http://www.w3.org/2000/svg" viewBox="0 0 512 512" xml:space="preserve"><path style="fill:#2e9ada" d="M415.289 245.262c-37.127 0-67.333-30.206-67.333-67.333s30.206-67.333 67.333-67.333 67.333 30.206 67.333 67.333c-.001 37.127-30.206 67.333-67.333 67.333m79.644 156.141H335.644c-9.425 0-17.067-7.641-17.067-17.067v-30.893c0-53.327 43.385-96.711 96.711-96.711S512 300.117 512 353.444v30.893c0 9.425-7.641 17.066-17.067 17.066"/><path style="fill:#60bfe1" d="M256 245.262c-37.127 0-67.333-30.206-67.333-67.333s30.206-67.333 67.333-67.333 67.333 30.206 67.333 67.333-30.206 67.333-67.333 67.333m79.644 156.141H176.356c-9.425 0-17.067-7.641-17.067-17.067v-30.893c0-53.327 43.385-96.711 96.711-96.711s96.711 43.385 96.711 96.711v30.893c0 9.426-7.641 17.067-17.067 17.067"/><path style="fill:#c7e5f4" d="M96.711 245.262c-37.127 0-67.333-30.206-67.333-67.333s30.206-67.333 67.333-67.333 67.333 30.206 67.333 67.333-30.206 67.333-67.333 67.333m79.645 156.141H17.067C7.641 401.403 0 393.762 0 384.337v-30.893c0-53.327 43.385-96.711 96.711-96.711s96.711 43.385 96.711 96.711v30.893c0 9.425-7.641 17.066-17.066 17.066"/></svg>